<?xml version="1.0" encoding="UTF-8"?>
<svg width="234px" height="49px" viewBox="0 0 234 49" version="1.1" xmlns="http://www.w3.org/2000/svg" xmlns:xlink="http://www.w3.org/1999/xlink">
    <!-- Generator: Sketch 49 (51002) - http://www.bohemiancoding.com/sketch -->
    <title>logo-primary-dark</title>
    <desc>Created with Sketch.</desc>
    <defs></defs>
    <g id="Page-1" stroke="none" stroke-width="1" fill="none" fill-rule="evenodd">
        <g id="DappDevs-PressKit" transform="translate(-258.000000, -904.000000)" fill="#131742">
            <g id="logo-primary-dark" transform="translate(258.000000, 904.000000)">
                <path d="M99.5017736,34.2645426 L95.3452962,34.2645426 L102.074665,18.0733741 L105.675314,18.0733741 L112.404682,34.2645426 L108.248205,34.2645426 L106.848147,30.8882024 L100.900084,30.8882024 L99.5017736,34.2645426 Z M102.40152,27.2647243 L105.350207,27.2647243 L103.883729,23.7102994 L102.40152,27.2647243 Z M122.201594,34.2645426 L118.309047,34.2645426 L118.309047,18.0733741 L123.890054,18.0733741 C126.258442,18.0733741 127.999338,18.5549296 129.109247,19.5380298 C130.229643,20.5265815 130.783723,22.0366669 130.783723,24.0446625 C130.783723,26.0544753 130.212164,27.548206 129.058558,28.5022311 C127.922431,29.4417187 126.211249,29.9032851 123.935499,29.9032851 L122.201594,29.9032851 L122.201594,34.2645426 Z M124.192438,26.3252367 C125.241171,26.3252367 125.931587,26.1126254 126.270677,25.7146607 C126.625498,25.3021584 126.805531,24.6824964 126.805531,23.8429543 C126.805531,23.0252186 126.578305,22.4709754 126.134342,22.1493327 C125.665908,21.8077009 124.902081,21.6296162 123.848104,21.6296162 L122.201594,21.6296162 L122.201594,26.3252367 L124.192438,26.3252367 Z M141.604897,34.2645426 L137.710603,34.2645426 L137.710603,18.0733741 L143.295105,18.0733741 C145.659997,18.0733741 147.400894,18.5549296 148.51255,19.5380298 C149.632947,20.5265815 150.188775,22.0366669 150.188775,24.0446625 C150.188775,26.0544753 149.615468,27.548206 148.46361,28.5022311 C147.323987,29.4417187 145.614552,29.9032851 143.337054,29.9032851 L141.604897,29.9032851 L141.604897,34.2645426 Z M143.595742,26.3252367 C144.644475,26.3252367 145.33489,26.1126254 145.673981,25.7146607 C146.027054,25.3021584 146.208834,24.6824964 146.208834,23.8429543 C146.208834,23.0252186 145.983357,22.4709754 145.537645,22.1493327 C145.067463,21.8077009 144.305384,21.6296162 143.24966,21.6296162 L141.604897,21.6296162 L141.604897,26.3252367 L143.595742,26.3252367 Z M195.322736,30.6192582 L195.322736,34.2645426 L183.708021,34.2645426 L183.708021,18.0733741 L195.088519,18.0733741 L195.088519,21.7404648 L187.600568,21.7404648 L187.600568,24.4026491 L194.333432,24.4026491 L194.333432,27.9352676 L187.600568,27.9352676 L187.600568,30.6192582 L195.322736,30.6192582 Z M212.619835,18.0733741 L216.833993,18.0733741 L210.574806,34.2645426 L207.370928,34.2645426 L201.109993,18.0733741 L205.325899,18.0733741 L208.971993,27.5518404 L212.619835,18.0733741 Z M227.709351,21.3388657 C227.207708,21.3388657 226.826668,21.4569831 226.555745,21.6877663 C226.297058,21.9112807 226.17121,22.1965796 226.17121,22.5672865 C226.17121,22.9270903 226.321528,23.2014861 226.639644,23.4195489 C226.999709,23.6648697 227.89288,23.9737921 229.289442,24.3317786 C230.75592,24.7079371 231.902535,25.2749006 232.727538,26.0381206 C233.577011,26.8267814 234,27.9697943 234,29.445353 C234,30.9299978 233.459903,32.1438811 232.386699,33.0706483 C231.323984,33.9883296 229.932665,34.4444444 228.224978,34.4444444 C225.77444,34.4444444 223.566857,33.4995053 221.609223,31.618713 L221.425694,31.4406283 L223.760873,28.4622529 L223.970619,28.6530579 C225.545466,30.0886385 226.987474,30.7973429 228.28965,30.7973429 C228.85247,30.7973429 229.278955,30.6755911 229.579591,30.4411735 C229.862749,30.2176591 229.999085,29.9287257 229.999085,29.5452985 C229.999085,29.1673229 229.855758,28.8783896 229.553373,28.6548751 C229.216031,28.40592 228.502893,28.1351586 227.429689,27.8607628 C225.645096,27.4191855 224.330684,26.8413189 223.482958,26.1162598 C222.605519,25.3657601 222.170295,24.1954893 222.170295,22.6363398 C222.170295,21.0662871 222.719131,19.8396834 223.813309,18.978335 C224.88826,18.1369758 226.225395,17.7153876 227.815973,17.7153876 C228.850722,17.7153876 229.883724,17.8989238 230.914978,18.2678135 C231.949727,18.634886 232.853386,19.1600541 233.624204,19.8396834 L233.812976,20.0032306 L231.813392,23.0015951 L231.589663,22.8253276 C230.331183,21.8313243 229.037746,21.3388657 227.709351,21.3388657 Z M79.8362868,14.4444444 C83.1887358,14.4444444 85.7616268,15.2967068 87.5532119,17.0012317 C89.344797,18.7075736 90.2414635,21.0790074 90.2414635,24.1173501 C90.2414635,27.1538757 89.3675196,29.559836 87.6196317,31.3297797 C85.8717438,33.0997234 83.2062147,33.9846952 79.6212966,33.9846952 L73.1943128,33.9846952 L73.1943128,14.4444444 L79.8362868,14.4444444 Z M80.051277,30.1267995 C81.970458,30.1267995 83.4421796,29.6234377 84.4734334,28.6185313 C85.5046873,27.6118077 86.0203142,26.1489692 86.0203142,24.230016 C86.0203142,22.3092455 85.5046873,20.8318695 84.4734334,19.797888 C83.4421796,18.7639066 81.8620889,18.2460072 79.7279178,18.2460072 L77.3892438,18.2460072 L77.3892438,30.1267995 L80.051277,30.1267995 Z M166.101546,14.4444444 C169.453995,14.4444444 172.025139,15.2967068 173.818472,17.0012317 C175.610057,18.7075736 176.506723,21.0790074 176.506723,24.1173501 C176.506723,27.1538757 175.632779,29.559836 173.884891,31.3297797 C172.138751,33.0997234 169.469726,33.9846952 165.884808,33.9846952 L159.459572,33.9846952 L159.459572,14.4444444 L166.101546,14.4444444 Z M166.316537,30.1267995 C168.23397,30.1267995 169.709187,29.6234377 170.738693,28.6185313 C171.769947,27.6118077 172.285574,26.1489692 172.285574,24.230016 C172.285574,22.3092455 171.769947,20.8318695 170.738693,19.797888 C169.709187,18.7639066 168.127349,18.2460072 165.993177,18.2460072 L163.654503,18.2460072 L163.654503,30.1267995 L166.316537,30.1267995 Z" id="Fill-1"></path>
                <path d="M4.37763478e-05,5.04550487 L4.37763478e-05,44.1334581 C4.37763478e-05,46.7601637 2.17310938,48.8889747 4.85398241,48.8889747 L8.05754689,48.8889747 C8.05754689,45.7506511 7.76774645,40.2326394 13.1058532,32.6261287 C17.3622426,26.5609045 17.6704292,20.3147057 17.6205239,18.0302222 C17.5894426,17.748039 17.571932,17.4619961 17.571932,17.1712359 C17.571932,17.1587992 17.5728076,17.1459337 17.5728076,17.1334971 C17.5723698,17.1274932 17.571932,17.1240624 17.571932,17.1240624 L17.5732453,17.1240624 C17.5990735,12.8128343 21.1738627,9.32499805 25.581281,9.32499805 C27.3003843,9.32499805 28.8916601,9.85805848 30.1966377,10.7616452 L30.1966377,10.759501 C30.1966377,10.759501 30.199702,10.7629318 30.205393,10.7676491 C30.2474184,10.7968109 30.2890061,10.8255439 30.330156,10.8551345 C30.5529784,10.9807875 31.0704167,11.1506121 31.9941009,10.8405536 C33.5472912,10.2590331 36.962734,9.36145029 43.2998205,9.3262846 C43.35673,9.32585575 43.3681119,9.40476413 43.3133912,9.41977388 C41.6301847,9.87564133 34.7747844,12.067922 33.5214631,17.7986433 L33.5210253,17.7986433 L33.5166477,17.8239454 C33.4951972,17.9238674 33.47506,18.0246472 33.4566739,18.1262846 C33.3402284,18.6923665 33.074505,19.8725614 32.724293,20.7178246 C32.7006537,20.7628538 32.6752633,20.8070253 32.6507484,20.8520546 L32.6538128,20.8520546 C30.8436544,24.2000858 33.7968173,27.4713528 33.7968173,27.4713528 L33.7915641,27.4846472 C41.7168622,37.8070643 42.715842,48.8889747 42.715842,48.8889747 L44.7545137,48.8889747 C47.4353868,48.8889747 49.6088901,46.7601637 49.6088901,44.1334581 L49.6088901,5.04550487 C49.6088901,2.41922807 47.4353868,0.290417154 44.7545137,0.290417154 L4.85398241,0.290417154 C2.17310938,0.290417154 4.37763478e-05,2.41922807 4.37763478e-05,5.04550487" id="Fill-1"></path>
            </g>
        </g>
    </g>
</svg>