<?xml version="1.0" encoding="UTF-8"?>
<svg width="167px" height="131px" viewBox="0 0 167 131" version="1.1" xmlns="http://www.w3.org/2000/svg" xmlns:xlink="http://www.w3.org/1999/xlink">
    <!-- Generator: Sketch 49 (51002) - http://www.bohemiancoding.com/sketch -->
    <title>logo-vertical-dark</title>
    <desc>Created with Sketch.</desc>
    <defs></defs>
    <g id="Page-1" stroke="none" stroke-width="1" fill="none" fill-rule="evenodd">
        <g id="DappDevs-PressKit" transform="translate(-637.000000, -864.000000)" fill="#131742">
            <g id="logo-vertical-dark" transform="translate(637.000000, 864.000000)">
                <path d="M27.2671087,130.511279 L22.9590106,130.511279 L29.933854,113.773438 L33.6658481,113.773438 L40.6406916,130.511279 L36.3325935,130.511279 L34.8814637,127.020941 L28.7164268,127.020941 L27.2671087,130.511279 Z M30.2726321,123.275122 L33.3288817,123.275122 L31.8089093,119.600687 L30.2726321,123.275122 Z M50.7949766,130.511279 L46.7604373,130.511279 L46.7604373,113.773438 L52.5450282,113.773438 C54.9998108,113.773438 56.8042118,114.271253 57.9546081,115.287546 C59.1158742,116.309475 59.6901665,117.870546 59.6901665,119.946339 C59.6901665,122.02401 59.0977577,123.568175 57.9020703,124.554411 C56.7244993,125.525619 54.9508963,126.00277 52.5921311,126.00277 L50.7949766,126.00277 L50.7949766,130.511279 Z M52.8584433,122.303914 C53.9454318,122.303914 54.6610327,122.084124 55.0124923,121.672722 C55.3802568,121.246292 55.5668565,120.605708 55.5668565,119.73782 C55.5668565,118.892475 55.3313423,118.319519 54.8711838,117.987016 C54.3856622,117.633849 53.5939722,117.449752 52.5015487,117.449752 L50.7949766,117.449752 L50.7949766,122.303914 L52.8584433,122.303914 Z M70.9060771,130.511279 L66.8697261,130.511279 L66.8697261,113.773438 L72.6579403,113.773438 C75.1090996,113.773438 76.9135007,114.271253 78.0657086,115.287546 C79.2269747,116.309475 79.8030786,117.870546 79.8030786,119.946339 C79.8030786,122.02401 79.2088582,123.568175 78.0149824,124.554411 C76.8337882,125.525619 75.0619968,126.00277 72.7014199,126.00277 L70.9060771,126.00277 L70.9060771,130.511279 Z M72.9695437,122.303914 C74.0565323,122.303914 74.7721331,122.084124 75.1235928,121.672722 C75.4895456,121.246292 75.677957,120.605708 75.677957,119.73782 C75.677957,118.892475 75.4442544,118.319519 74.9822843,117.987016 C74.494951,117.633849 73.7050727,117.449752 72.6108375,117.449752 L70.9060771,117.449752 L70.9060771,122.303914 L72.9695437,122.303914 Z M126.583444,126.742917 L126.583444,130.511279 L114.545045,130.511279 L114.545045,113.773438 L126.340683,113.773438 L126.340683,117.564343 L118.579585,117.564343 L118.579585,120.316412 L125.558051,120.316412 L125.558051,123.968305 L118.579585,123.968305 L118.579585,126.742917 L126.583444,126.742917 Z M144.511509,113.773438 L148.879392,113.773438 L142.391881,130.511279 L139.071131,130.511279 L132.581809,113.773438 L136.951504,113.773438 L140.7306,123.571932 L144.511509,113.773438 Z M160.151463,117.149185 C159.63152,117.149185 159.236581,117.27129 158.955776,117.509865 C158.687652,117.740927 158.557213,118.035858 158.557213,118.419081 C158.557213,118.791033 158.713015,119.074694 159.042735,119.300119 C159.415934,119.553723 160.341686,119.873076 161.789193,120.243149 C163.309165,120.632008 164.497606,121.218114 165.352704,122.007103 C166.233164,122.822392 166.671583,124.003997 166.671583,125.529376 C166.671583,127.064148 166.111784,128.319016 164.999432,129.277075 C163.897951,130.22574 162.455879,130.697255 160.685899,130.697255 C158.145969,130.697255 155.857858,129.720411 153.828813,127.776117 L153.63859,127.592019 L156.058951,124.513083 L156.276349,124.71033 C157.908643,126.194381 159.403253,126.927014 160.75293,126.927014 C161.336281,126.927014 161.778323,126.801152 162.089926,126.558819 C162.383413,126.327758 162.524722,126.029069 162.524722,125.632696 C162.524722,125.241959 162.376167,124.94327 162.062751,124.712209 C161.713103,124.454848 160.973951,124.174945 159.8616,123.891285 C158.011907,123.434798 156.649548,122.83742 155.770899,122.087881 C154.861452,121.312042 154.410352,120.102258 154.410352,118.490466 C154.410352,116.867403 154.979209,115.599385 156.113301,114.708954 C157.227464,113.839187 158.613374,113.403365 160.261974,113.403365 C161.334469,113.403365 162.405153,113.593098 163.474025,113.974443 C164.54652,114.353909 165.483142,114.896809 166.282079,115.599385 L166.477737,115.768454 L164.405212,118.868054 L164.173321,118.685835 C162.868935,117.658271 161.528315,117.149185 160.151463,117.149185 Z M6.88426104,110.021983 C10.3590012,110.021983 13.0257465,110.903021 14.8826854,112.665097 C16.7396242,114.429051 17.6689995,116.880553 17.6689995,120.021481 C17.6689995,123.16053 16.7631756,125.647725 14.951528,127.477428 C13.1398803,129.307131 10.3771177,130.221983 6.66142838,130.221983 L0,130.221983 L0,110.021983 L6.88426104,110.021983 Z M7.1070937,126.233831 C9.09628281,126.233831 10.6216901,125.713474 11.6905622,124.674638 C12.7594343,123.633924 13.2938704,122.121695 13.2938704,120.137951 C13.2938704,118.152328 12.7594343,116.62507 11.6905622,115.556178 C10.6216901,114.487286 8.98396066,113.9519 6.77193889,113.9519 L4.34795434,113.9519 L4.34795434,126.233831 L7.1070937,126.233831 Z M96.2963188,110.021983 C99.771059,110.021983 102.435993,110.903021 104.294743,112.665097 C106.151682,114.429051 107.081057,116.880553 107.081057,120.021481 C107.081057,123.16053 106.175233,125.647725 104.363586,127.477428 C102.55375,129.307131 99.7873638,130.221983 96.0716745,130.221983 L89.4120577,130.221983 L89.4120577,110.021983 L96.2963188,110.021983 Z M96.5191514,126.233831 C98.5065289,126.233831 100.03556,125.713474 101.10262,124.674638 C102.171492,123.633924 102.705928,122.121695 102.705928,120.137951 C102.705928,118.152328 102.171492,116.62507 101.10262,115.556178 C100.03556,114.487286 98.3960184,113.9519 96.1839966,113.9519 L93.7600121,113.9519 L93.7600121,126.233831 L96.5191514,126.233831 Z" id="Fill-1"></path>
                <path d="M39.1637168,8.6698104 L39.1637168,79.9377161 C39.1637168,84.7269106 43.0479294,88.6083084 47.8398145,88.6083084 L53.5659763,88.6083084 C53.5659763,82.8862961 53.047977,72.8254691 62.5894935,58.9567437 C70.197511,47.8982004 70.7483743,36.5096913 70.659172,32.3444604 C70.6036162,31.8299641 70.5723171,31.3084306 70.5723171,30.7782961 C70.5723171,30.7556207 70.5738821,30.7321634 70.5738821,30.709488 C70.5730996,30.6985413 70.5723171,30.692286 70.5723171,30.692286 L70.5746646,30.692286 C70.6208307,22.8317518 77.0105325,16.4724834 84.8885043,16.4724834 C87.9612889,16.4724834 90.8055904,17.4443966 93.1381523,19.0918796 L93.1381523,19.08797 C93.1381523,19.08797 93.1436297,19.0942253 93.1538019,19.1028263 C93.2289196,19.1559961 93.3032548,19.208384 93.3768076,19.2623358 C93.7750881,19.4914352 94.6999751,19.8010713 96.3510002,19.2357509 C99.1272262,18.1754818 105.232107,16.5389457 116.559234,16.4748291 C116.660956,16.4740472 116.6813,16.6179185 116.583491,16.6452853 C113.574869,17.4764549 101.32129,21.4735753 99.0810601,31.9222294 L99.0802777,31.9222294 L99.0724529,31.968362 C99.0341116,32.1505469 98.9981176,32.3342956 98.9652536,32.5196081 C98.7571149,33.5517284 98.2821518,35.7035428 97.6561707,37.244686 C97.613917,37.3267865 97.5685334,37.4073232 97.5247147,37.4894237 L97.530192,37.4894237 C94.2946524,43.5937896 99.5732378,49.5581938 99.5732378,49.5581938 L99.563848,49.582433 C113.7298,68.40299 115.515411,88.6083084 115.515411,88.6083084 L119.159403,88.6083084 C123.951288,88.6083084 127.836283,84.7269106 127.836283,79.9377161 L127.836283,8.6698104 C127.836283,3.8813978 123.951288,0 119.159403,0 L47.8398145,0 C43.0479294,0 39.1637168,3.8813978 39.1637168,8.6698104" id="Fill-1"></path>
            </g>
        </g>
    </g>
</svg>