<?xml version="1.0" encoding="UTF-8"?>
<!-- Generator: Adobe Illustrator 15.1.0, SVG Export Plug-In . SVG Version: 6.00 Build 0)  -->
<!DOCTYPE svg PUBLIC "-//W3C//DTD SVG 1.1//EN" "http://www.w3.org/Graphics/SVG/1.1/DTD/svg11.dtd">
<svg version="1.1" id="Layer_1" xmlns="http://www.w3.org/2000/svg" xmlns:xlink="http://www.w3.org/1999/xlink" x="0px" y="0px" width="792px" height="612px" viewBox="0 0 792 612" enable-background="new 0 0 792 612" xml:space="preserve">
<rect fill="#FFFFFF" width="792" height="612"/>
<polyline opacity="0.34" fill="#6DA69F" stroke="#007B78" stroke-linecap="round" stroke-linejoin="round" stroke-miterlimit="10" stroke-dasharray="4,3" enable-background="new    " points="  351.904,0 351.904,612 198,612 198,0 "/>
<polyline opacity="0.14" fill="#6DA69F" stroke="#007B78" stroke-linecap="round" stroke-linejoin="round" stroke-miterlimit="10" stroke-dasharray="4,3" enable-background="new    " points="  792,0 792,612 351.804,612 351.804,0 "/>
<path fill="none" stroke="#339963" stroke-width="6" stroke-linecap="round" stroke-linejoin="round" stroke-miterlimit="10" d="  M159.194,279.839c0,0-2.002-16.917,16.543-16.917h37.778"/>
<circle fill="#007B78" cx="159.194" cy="287.245" r="8.885"/>
<line fill="none" stroke="#007B78" stroke-linecap="round" stroke-linejoin="round" stroke-miterlimit="10" stroke-dasharray="4,3" x1="382.649" y1="85" x2="382.649" y2="503.788"/>
<line fill="none" stroke="#007B78" stroke-linecap="round" stroke-linejoin="round" stroke-miterlimit="10" stroke-dasharray="4,3" x1="466.795" y1="278.586" x2="466.795" y2="503.788"/>
<line fill="none" stroke="#007B78" stroke-linecap="round" stroke-linejoin="round" stroke-miterlimit="10" stroke-dasharray="4,3" x1="608.516" y1="134.353" x2="608.516" y2="503.788"/>
<line fill="none" stroke="#007B78" stroke-linecap="round" stroke-linejoin="round" stroke-miterlimit="10" stroke-dasharray="4,3" x1="702.323" y1="78.679" x2="702.323" y2="503.788"/>
<g>
	<circle fill="none" stroke="#0094BB" stroke-width="6" stroke-miterlimit="10" cx="116.693" cy="205.83" r="25.251"/>
	<g>
		
			<circle fill="#FFFFFF" stroke="#0094BB" stroke-width="6" stroke-linecap="round" stroke-miterlimit="10" cx="108.884" cy="197.734" r="0.688"/>
		
			<circle fill="#FFFFFF" stroke="#0094BB" stroke-width="6" stroke-linecap="round" stroke-miterlimit="10" cx="124.502" cy="197.734" r="0.688"/>
	</g>
</g>
<g>
	<circle fill="none" stroke="#0094BB" stroke-width="6" stroke-miterlimit="10" cx="510.417" cy="277.17" r="25.251"/>
	<g>
		
			<circle fill="#FFFFFF" stroke="#0094BB" stroke-width="6" stroke-linecap="round" stroke-miterlimit="10" cx="502.607" cy="269.074" r="0.688"/>
		
			<circle fill="#FFFFFF" stroke="#0094BB" stroke-width="6" stroke-linecap="round" stroke-miterlimit="10" cx="518.225" cy="269.074" r="0.688"/>
	</g>
	
		<line fill="none" stroke="#0094BB" stroke-width="6" stroke-linecap="round" stroke-miterlimit="10" x1="502.264" y1="287.469" x2="518.568" y2="287.469"/>
</g>
<g>
	<circle fill="#FFFFFF" stroke="#339963" stroke-width="6" stroke-miterlimit="10" cx="116.693" cy="286.712" r="25.251"/>
	<g>
		
			<circle fill="#FFFFFF" stroke="#339963" stroke-width="6" stroke-linecap="round" stroke-miterlimit="10" cx="108.884" cy="278.616" r="0.688"/>
		
			<circle fill="#FFFFFF" stroke="#339963" stroke-width="6" stroke-linecap="round" stroke-miterlimit="10" cx="124.502" cy="278.616" r="0.688"/>
	</g>
</g>
<g>
	<circle fill="none" stroke="#339963" stroke-width="6" stroke-miterlimit="10" cx="510.417" cy="358.768" r="25.251"/>
	<g>
		
			<circle fill="#FFFFFF" stroke="#339963" stroke-width="6" stroke-linecap="round" stroke-miterlimit="10" cx="502.607" cy="350.672" r="0.688"/>
		
			<circle fill="#FFFFFF" stroke="#339963" stroke-width="6" stroke-linecap="round" stroke-miterlimit="10" cx="518.225" cy="350.672" r="0.688"/>
	</g>
	
		<line fill="none" stroke="#339963" stroke-width="6" stroke-linecap="round" stroke-miterlimit="10" x1="502.264" y1="369.065" x2="518.568" y2="369.065"/>
</g>
<g enable-background="new    ">
	<path fill="#6DA69F" d="M127.552,579.681h4.174c1.131,0,2.156,0.046,2.813,0.26c1.33,0.428,1.865,1.483,1.865,2.507   c0,0.581-0.153,0.934-0.199,1.04c-0.489,1.101-1.529,1.315-2.11,1.438c0.657,0.106,1.529,0.244,2.125,0.917   c0.382,0.413,0.597,1.009,0.597,1.621c0,0.841-0.443,2.018-1.789,2.614c-0.81,0.352-1.682,0.397-2.92,0.397h-4.556V579.681z    M130.121,581.698v2.248h2.033c0.612-0.016,1.605-0.046,1.605-1.162c0-1.04-0.902-1.086-1.422-1.086H130.121z M130.121,585.903   v2.614h1.88c0.902-0.016,2.08-0.046,2.08-1.284c0-1.3-1.07-1.315-1.621-1.33H130.121z"/>
	<path fill="#6DA69F" d="M139.02,579.681h7.981v2.095h-5.29v1.957h4.938v2.049h-4.938v2.568h5.764v2.125h-8.455V579.681z"/>
	<path fill="#6DA69F" d="M157.812,579.681v2.079h-5.596v2.263h5.152v2.095h-5.152v4.357h-2.691v-10.794H157.812z"/>
	<path fill="#6DA69F" d="M164.387,590.78c-3.425,0-5.367-2.63-5.367-5.749c0-2.92,1.85-5.688,5.321-5.688   c0.642,0,1.315,0.092,1.972,0.321c3.303,1.146,3.517,4.739,3.517,5.474c0,1.865-0.856,3.547-2.049,4.511   C166.727,590.521,165.503,590.78,164.387,590.78z M166.252,582.387c-0.458-0.489-1.162-0.795-1.896-0.795   c-1.636,0-2.675,1.437-2.675,3.394c0,2.569,1.437,3.517,2.706,3.517c1.284,0,2.66-0.917,2.737-3.18   C167.17,584.19,166.864,583.044,166.252,582.387z"/>
	<path fill="#6DA69F" d="M171.514,579.681h4.862c1.131,0.015,2.538,0.03,3.532,1.101c0.504,0.565,0.856,1.422,0.856,2.4   c0,2.171-1.483,2.706-2.217,2.981l2.492,4.312h-2.981l-2.141-3.853h-1.697v3.853h-2.706V579.681z M174.22,581.698v2.921h2.232   c0.382-0.016,1.621-0.046,1.621-1.483c0-1.376-0.994-1.422-1.56-1.438H174.22z"/>
	<path fill="#6DA69F" d="M182.997,579.681h7.981v2.095h-5.29v1.957h4.938v2.049h-4.938v2.568h5.764v2.125h-8.455V579.681z"/>
</g>
<g enable-background="new    ">
	<path fill="#6DA69F" d="M512.906,579.681h4.861c1.132,0.015,2.539,0.03,3.532,1.101c0.505,0.565,0.856,1.422,0.856,2.4   c0,2.171-1.482,2.706-2.217,2.981l2.492,4.312h-2.981l-2.141-3.853h-1.697v3.853h-2.706V579.681z M515.612,581.698v2.921h2.232   c0.382-0.016,1.62-0.046,1.62-1.483c0-1.376-0.993-1.422-1.559-1.438H515.612z"/>
	<path fill="#6DA69F" d="M524.39,579.681h7.981v2.095h-5.291v1.957h4.939v2.049h-4.939v2.568h5.765v2.125h-8.455V579.681z"/>
	<path fill="#6DA69F" d="M536.057,587.233c0.275,0.306,0.504,0.55,1.039,0.841c0.719,0.382,1.453,0.52,2.08,0.52   c1.07,0,1.987-0.504,1.987-1.254c0-0.855-1.085-0.993-1.88-1.101c-0.598-0.076-1.193-0.152-1.774-0.275   c-0.657-0.138-2.905-0.611-2.905-2.936c0-2.782,2.478-3.607,4.343-3.607c2.492,0,3.837,1.207,4.771,2.048l-1.988,1.422   c-0.336-0.336-0.642-0.626-1.07-0.871c-0.382-0.214-1.07-0.474-1.758-0.474c-1.07,0-1.605,0.611-1.605,1.131   c0,0.826,0.918,0.948,1.376,1.01c1.147,0.138,2.69,0.428,3.303,0.642c1.238,0.459,1.865,1.422,1.865,2.646   c0,0.779-0.29,1.636-0.856,2.293c-0.979,1.132-2.538,1.452-4.052,1.452c-3.042,0-4.25-1.406-4.923-2.186L536.057,587.233z"/>
	<path fill="#6DA69F" d="M554.879,579.681v6.023c-0.016,1.04-0.031,2.079-0.627,3.058c-1.162,1.866-3.562,1.957-4.021,1.957   c-0.811,0-1.773-0.198-2.507-0.58c-2.079-1.07-2.079-2.967-2.064-4.435v-6.023h2.722v6.727c0,0.551,0.016,1.01,0.199,1.346   c0.336,0.565,1.07,0.734,1.742,0.734c1.835,0,1.835-1.254,1.851-2.095v-6.712H554.879z"/>
	<path fill="#6DA69F" d="M557.54,579.665h2.69v8.531h4.221v2.278h-6.911V579.665z"/>
	<path fill="#6DA69F" d="M563.324,579.665h8.316v2.141h-2.797v8.669h-2.707v-8.669h-2.812V579.665z"/>
</g>
<g enable-background="new    ">
	<path fill="#6DA69F" d="M251.76,591.015c-0.397,0.627-0.78,1.239-1.636,1.835c-0.458,0.321-1.514,0.948-3.012,0.948   c-2.859,0-5.168-2.079-5.168-5.733c0-3.195,2.171-5.719,5.229-5.719c1.238,0,2.339,0.429,3.149,1.07   c0.75,0.597,1.101,1.192,1.407,1.728l-2.141,1.07c-0.153-0.352-0.336-0.719-0.81-1.116c-0.52-0.412-1.04-0.535-1.483-0.535   c-1.743,0-2.661,1.621-2.661,3.425c0,2.37,1.208,3.548,2.661,3.548c1.406,0,1.972-0.979,2.339-1.605L251.76,591.015z"/>
	<path fill="#6DA69F" d="M262.28,582.683v10.794h-2.707v-4.603h-3.944v4.603h-2.722v-10.794h2.722v3.898h3.944v-3.898H262.28z"/>
	<path fill="#6DA69F" d="M269.666,593.782c-3.425,0-5.367-2.63-5.367-5.749c0-2.92,1.85-5.688,5.321-5.688   c0.642,0,1.315,0.092,1.972,0.321c3.303,1.146,3.517,4.739,3.517,5.474c0,1.865-0.856,3.547-2.049,4.511   C272.005,593.522,270.782,593.782,269.666,593.782z M271.531,585.389c-0.458-0.489-1.162-0.795-1.896-0.795   c-1.636,0-2.675,1.437-2.675,3.394c0,2.569,1.437,3.517,2.706,3.517c1.284,0,2.66-0.917,2.737-3.18   C272.449,587.192,272.143,586.046,271.531,585.389z"/>
	<path fill="#6DA69F" d="M279.483,582.683v10.794h-2.691v-10.794H279.483z"/>
	<path fill="#6DA69F" d="M291.287,591.015c-0.397,0.627-0.78,1.239-1.636,1.835c-0.458,0.321-1.514,0.948-3.012,0.948   c-2.859,0-5.168-2.079-5.168-5.733c0-3.195,2.171-5.719,5.229-5.719c1.238,0,2.339,0.429,3.149,1.07   c0.75,0.597,1.101,1.192,1.407,1.728l-2.141,1.07c-0.153-0.352-0.336-0.719-0.81-1.116c-0.52-0.412-1.04-0.535-1.483-0.535   c-1.743,0-2.661,1.621-2.661,3.425c0,2.37,1.208,3.548,2.661,3.548c1.406,0,1.972-0.979,2.339-1.605L291.287,591.015z"/>
	<path fill="#6DA69F" d="M292.435,582.683h7.981v2.095h-5.29v1.957h4.938v2.049h-4.938v2.568h5.764v2.125h-8.455V582.683z"/>
</g>
<g enable-background="new    ">
	<path fill="#6DA69F" d="M59.392,503.148h4.342c1.773,0,3.348,0,4.296,1.36c0.413,0.611,0.611,1.483,0.611,2.217   c0,0.597-0.122,1.178-0.367,1.682c-0.933,1.927-2.92,1.973-4.388,2.003h-1.789v3.532h-2.706V503.148z M62.098,505.136v3.271h1.621   c1.009,0,2.232-0.03,2.232-1.696c0-1.575-1.361-1.575-2.141-1.575H62.098z"/>
	<path fill="#6DA69F" d="M74.747,503.148l3.975,10.794h-2.874l-0.535-1.728h-3.976l-0.535,1.728h-2.874l4.006-10.794H74.747z    M73.294,505.717c-0.137,0.551-0.291,1.116-0.443,1.666c-0.229,0.811-0.642,2.08-0.887,2.89h2.737L73.294,505.717z"/>
	<path fill="#6DA69F" d="M76.907,503.148h3.104l2.324,3.7c0.137-0.307,0.168-0.367,0.443-0.811l1.85-2.89h3.073l-4.082,5.688v5.106   h-2.661v-5.03L76.907,503.148z"/>
	<path fill="#6DA69F" d="M92.767,514.248c-3.425,0-5.367-2.63-5.367-5.749c0-2.92,1.85-5.688,5.321-5.688   c0.642,0,1.315,0.092,1.972,0.321c3.303,1.146,3.517,4.739,3.517,5.474c0,1.865-0.856,3.547-2.049,4.511   C95.106,513.988,93.883,514.248,92.767,514.248z M94.632,505.854c-0.458-0.489-1.162-0.795-1.896-0.795   c-1.636,0-2.675,1.437-2.675,3.394c0,2.569,1.437,3.517,2.706,3.517c1.284,0,2.66-0.917,2.737-3.18   C95.549,507.658,95.243,506.512,94.632,505.854z"/>
	<path fill="#6DA69F" d="M108.179,503.148v2.079h-5.596v2.263h5.152v2.095h-5.152v4.357h-2.691v-10.794H108.179z"/>
	<path fill="#6DA69F" d="M117.736,503.148v2.079h-5.596v2.263h5.152v2.095h-5.152v4.357h-2.691v-10.794H117.736z"/>
</g>
<g enable-background="new    ">
	<path fill="#6DA69F" d="M379.566,528.864c0.275,0.306,0.504,0.55,1.04,0.841c0.719,0.382,1.453,0.52,2.079,0.52   c1.07,0,1.988-0.504,1.988-1.254c0-0.855-1.085-0.993-1.88-1.101c-0.597-0.076-1.193-0.152-1.774-0.275   c-0.657-0.138-2.905-0.611-2.905-2.936c0-2.782,2.477-3.607,4.342-3.607c2.492,0,3.837,1.207,4.77,2.048l-1.987,1.422   c-0.336-0.336-0.642-0.626-1.07-0.871c-0.382-0.214-1.07-0.474-1.758-0.474c-1.07,0-1.605,0.611-1.605,1.131   c0,0.826,0.917,0.948,1.376,1.01c1.147,0.138,2.691,0.428,3.303,0.642c1.238,0.459,1.865,1.422,1.865,2.646   c0,0.779-0.291,1.636-0.856,2.293c-0.979,1.132-2.538,1.452-4.052,1.452c-3.042,0-4.25-1.406-4.923-2.186L379.566,528.864z"/>
</g>
<g enable-background="new    ">
	<path fill="#6DA69F" d="M462.55,521.312h4.343c1.773,0,3.348,0,4.296,1.36c0.413,0.611,0.611,1.483,0.611,2.217   c0,0.597-0.122,1.178-0.367,1.682c-0.933,1.927-2.92,1.973-4.388,2.003h-1.789v3.532h-2.706V521.312z M465.256,523.299v3.271h1.621   c1.009,0,2.232-0.03,2.232-1.696c0-1.575-1.361-1.575-2.141-1.575H465.256z"/>
</g>
<g>
	<circle fill="none" stroke="#0094BB" stroke-width="6" stroke-miterlimit="10" cx="651.783" cy="134.352" r="25.871"/>
	<g>
		
			<circle fill="#FFFFFF" stroke="#0094BB" stroke-width="6" stroke-linecap="round" stroke-miterlimit="10" cx="643.783" cy="126.058" r="0.704"/>
		
			<circle fill="#FFFFFF" stroke="#0094BB" stroke-width="6" stroke-linecap="round" stroke-miterlimit="10" cx="659.783" cy="126.058" r="0.706"/>
	</g>
	<path fill="none" stroke="#0094BB" stroke-width="6" stroke-linecap="round" stroke-miterlimit="10" d="M642.987,142.976   c4.59,3.609,12.504,4.43,17.59,0"/>
</g>
<g>
	<circle fill="none" stroke="#0094BB" stroke-width="6" stroke-miterlimit="10" cx="424.352" cy="411.914" r="25.871"/>
	<g>
		
			<circle fill="#FFFFFF" stroke="#0094BB" stroke-width="6" stroke-linecap="round" stroke-miterlimit="10" cx="416.354" cy="403.62" r="0.705"/>
		
			<circle fill="#FFFFFF" stroke="#0094BB" stroke-width="6" stroke-linecap="round" stroke-miterlimit="10" cx="432.354" cy="403.62" r="0.705"/>
	</g>
	<path fill="none" stroke="#0094BB" stroke-width="6" stroke-linecap="round" stroke-miterlimit="10" d="M433.146,423.561   c-4.588-3.608-12.504-4.43-17.59,0"/>
</g>
<g>
	<circle fill="none" stroke="#339963" stroke-width="6" stroke-miterlimit="10" cx="424.889" cy="78.679" r="25.871"/>
	<g>
		
			<circle fill="#FFFFFF" stroke="#339963" stroke-width="6" stroke-linecap="round" stroke-miterlimit="10" cx="416.889" cy="70.384" r="0.705"/>
		
			<circle fill="#FFFFFF" stroke="#339963" stroke-width="6" stroke-linecap="round" stroke-miterlimit="10" cx="432.889" cy="70.384" r="0.705"/>
	</g>
	<path fill="none" stroke="#339963" stroke-width="6" stroke-linecap="round" stroke-miterlimit="10" d="M433.684,90.324   c-4.588-3.609-12.504-4.43-17.59,0"/>
</g>
<g>
	<circle fill="none" stroke="#0094BB" stroke-width="6" stroke-miterlimit="10" cx="745.139" cy="79.504" r="25.251"/>
	<g>
		
			<circle fill="#FFFFFF" stroke="#0094BB" stroke-width="6" stroke-linecap="round" stroke-miterlimit="10" cx="737.329" cy="71.409" r="0.688"/>
		
			<circle fill="#FFFFFF" stroke="#0094BB" stroke-width="6" stroke-linecap="round" stroke-miterlimit="10" cx="752.947" cy="71.409" r="0.688"/>
	</g>
	<path fill="none" stroke="#0094BB" stroke-width="6" stroke-linecap="round" stroke-linejoin="round" stroke-miterlimit="10" d="   M753.934,92.094c-5.086,4.431-13.002,3.609-17.59,0v-8.559c4.588,3.609,12.504,4.43,17.59,0V92.094z"/>
</g>
<g>
	<circle fill="none" stroke="#339963" stroke-width="6" stroke-miterlimit="10" cx="745.139" cy="412.09" r="25.251"/>
	<g>
		
			<circle fill="#FFFFFF" stroke="#339963" stroke-width="6" stroke-linecap="round" stroke-miterlimit="10" cx="737.329" cy="403.994" r="0.688"/>
		
			<circle fill="#FFFFFF" stroke="#339963" stroke-width="6" stroke-linecap="round" stroke-miterlimit="10" cx="752.947" cy="403.994" r="0.688"/>
	</g>
	<path fill="none" stroke="#339963" stroke-width="6" stroke-linecap="round" stroke-linejoin="round" stroke-miterlimit="10" d="   M753.934,424.398c-5.086,4.432-13.002,3.608-17.59,0v-8.56c4.588,3.609,12.504,4.43,17.59,0V424.398z"/>
</g>
<g>
	
		<circle fill="none" stroke="#339963" stroke-width="6" stroke-linecap="round" stroke-linejoin="round" stroke-miterlimit="10" cx="651.786" cy="214.371" r="25.871"/>
	<g>
		
			<path fill="#FFFFFF" stroke="#339963" stroke-width="6" stroke-linecap="round" stroke-linejoin="round" stroke-miterlimit="10" d="    M644.491,206.079c0,0.388-0.315,0.703-0.707,0.703c-0.388,0-0.703-0.315-0.703-0.703c0-0.392,0.315-0.706,0.703-0.706    C644.176,205.373,644.491,205.688,644.491,206.079z"/>
		
			<path fill="#FFFFFF" stroke="#339963" stroke-width="6" stroke-linecap="round" stroke-linejoin="round" stroke-miterlimit="10" d="    M660.491,206.079c0,0.388-0.316,0.703-0.706,0.703c-0.391,0-0.704-0.315-0.704-0.703c0-0.392,0.314-0.706,0.704-0.706    S660.491,205.688,660.491,206.079z"/>
	</g>
	
		<path fill="#FFFFFF" stroke="#339963" stroke-width="6" stroke-linecap="round" stroke-linejoin="round" stroke-miterlimit="10" d="   M642.991,222.995c4.589,3.609,12.504,4.43,17.59,0"/>
</g>
<g enable-background="new    ">
	<path fill="#0094BB" d="M265.557,22.586h2.698c1.032,0.013,2.591,0.036,3.67,0.996c0.875,0.791,1.211,1.979,1.211,3.166   c0,0.731-0.108,1.271-0.216,1.631c-0.78,2.615-3.142,2.663-4.03,2.675h-3.334V22.586z M267.691,24.373v4.978h0.647   c1.127-0.023,2.687-0.084,2.687-2.519c0-0.588-0.06-1.176-0.444-1.703c-0.576-0.768-1.391-0.756-2.039-0.756H267.691z"/>
	<path fill="#0094BB" d="M274.82,22.586h6.261v1.644h-4.15v1.535h3.874v1.607h-3.874v2.015h4.521v1.667h-6.632V22.586z"/>
	<path fill="#0094BB" d="M289.565,22.586v1.632h-4.39v1.774h4.042v1.644h-4.042v3.418h-2.111v-8.468H289.565z"/>
	<path fill="#0094BB" d="M290.576,22.586h6.261v1.644h-4.15v1.535h3.874v1.607h-3.874v2.015h4.521v1.667h-6.632V22.586z"/>
	<path fill="#0094BB" d="M305.932,29.123c-0.312,0.491-0.612,0.972-1.283,1.438c-0.36,0.252-1.188,0.744-2.363,0.744   c-2.243,0-4.054-1.631-4.054-4.498c0-2.506,1.703-4.485,4.102-4.485c0.972,0,1.835,0.336,2.471,0.84   c0.588,0.468,0.864,0.936,1.104,1.355l-1.679,0.839c-0.12-0.275-0.264-0.563-0.636-0.875c-0.408-0.324-0.815-0.42-1.163-0.42   c-1.367,0-2.087,1.271-2.087,2.687c0,1.859,0.947,2.782,2.087,2.782c1.104,0,1.547-0.768,1.835-1.259L305.932,29.123z"/>
	<path fill="#0094BB" d="M305.867,22.574h6.524v1.68h-2.195v6.8h-2.123v-6.8h-2.207V22.574z"/>
</g>
<g enable-background="new    ">
	<path fill="#0094BB" d="M270.561,298.827h2.698c1.032,0.013,2.591,0.036,3.67,0.996c0.875,0.791,1.211,1.979,1.211,3.166   c0,0.731-0.108,1.271-0.216,1.631c-0.78,2.615-3.142,2.663-4.03,2.675h-3.334V298.827z M272.695,300.614v4.978h0.647   c1.127-0.023,2.687-0.084,2.687-2.519c0-0.588-0.06-1.176-0.444-1.703c-0.576-0.768-1.391-0.756-2.039-0.756H272.695z"/>
	<path fill="#0094BB" d="M279.824,298.827h6.261v1.644h-4.15v1.535h3.874v1.607h-3.874v2.015h4.521v1.667h-6.632V298.827z"/>
	<path fill="#0094BB" d="M294.569,298.827v1.632h-4.39v1.774h4.042v1.644h-4.042v3.418h-2.111v-8.468H294.569z"/>
	<path fill="#0094BB" d="M295.58,298.827h6.261v1.644h-4.15v1.535h3.874v1.607h-3.874v2.015h4.521v1.667h-6.632V298.827z"/>
	<path fill="#0094BB" d="M310.936,305.364c-0.312,0.491-0.612,0.972-1.283,1.438c-0.36,0.252-1.188,0.744-2.363,0.744   c-2.243,0-4.054-1.631-4.054-4.498c0-2.506,1.703-4.485,4.102-4.485c0.972,0,1.835,0.336,2.471,0.84   c0.588,0.468,0.864,0.936,1.104,1.355l-1.679,0.839c-0.12-0.275-0.264-0.563-0.636-0.875c-0.408-0.324-0.815-0.42-1.163-0.42   c-1.367,0-2.087,1.271-2.087,2.687c0,1.859,0.947,2.782,2.087,2.782c1.104,0,1.547-0.768,1.835-1.259L310.936,305.364z"/>
	<path fill="#0094BB" d="M310.871,298.815h6.524v1.68h-2.195v6.8h-2.123v-6.8h-2.207V298.815z"/>
</g>
<g enable-background="new    ">
	<path fill="#339963" d="M270.561,334.285h2.698c1.032,0.013,2.591,0.036,3.67,0.996c0.875,0.791,1.211,1.979,1.211,3.166   c0,0.731-0.108,1.271-0.216,1.631c-0.78,2.615-3.142,2.663-4.03,2.675h-3.334V334.285z M272.695,336.072v4.978h0.647   c1.127-0.023,2.687-0.084,2.687-2.519c0-0.588-0.06-1.176-0.444-1.703c-0.576-0.768-1.391-0.756-2.039-0.756H272.695z"/>
	<path fill="#339963" d="M279.824,334.285h6.261v1.644h-4.15v1.535h3.874v1.607h-3.874v2.015h4.521v1.667h-6.632V334.285z"/>
	<path fill="#339963" d="M294.569,334.285v1.632h-4.39v1.774h4.042v1.644h-4.042v3.418h-2.111v-8.468H294.569z"/>
	<path fill="#339963" d="M295.58,334.285h6.261v1.644h-4.15v1.535h3.874v1.607h-3.874v2.015h4.521v1.667h-6.632V334.285z"/>
	<path fill="#339963" d="M310.936,340.822c-0.312,0.491-0.612,0.972-1.283,1.438c-0.36,0.252-1.188,0.744-2.363,0.744   c-2.243,0-4.054-1.631-4.054-4.498c0-2.506,1.703-4.485,4.102-4.485c0.972,0,1.835,0.336,2.471,0.84   c0.588,0.468,0.864,0.936,1.104,1.355l-1.679,0.839c-0.12-0.275-0.264-0.563-0.636-0.875c-0.408-0.324-0.815-0.42-1.163-0.42   c-1.367,0-2.087,1.271-2.087,2.687c0,1.859,0.947,2.782,2.087,2.782c1.104,0,1.547-0.768,1.835-1.259L310.936,340.822z"/>
	<path fill="#339963" d="M310.871,334.273h6.524v1.68h-2.195v6.8h-2.123v-6.8h-2.207V334.273z"/>
</g>
<g>
	<g enable-background="new    ">
		<path fill="#0094BB" d="M272.92,435.841c-0.312,0.491-0.612,0.972-1.283,1.438c-0.36,0.252-1.188,0.744-2.363,0.744    c-2.243,0-4.054-1.631-4.054-4.498c0-2.506,1.703-4.485,4.102-4.485c0.972,0,1.835,0.336,2.471,0.84    c0.588,0.468,0.864,0.936,1.104,1.355l-1.679,0.839c-0.12-0.275-0.264-0.563-0.636-0.875c-0.408-0.324-0.815-0.42-1.163-0.42    c-1.367,0-2.087,1.271-2.087,2.687c0,1.859,0.947,2.782,2.087,2.782c1.104,0,1.547-0.768,1.835-1.259L272.92,435.841z"/>
		<path fill="#0094BB" d="M277.722,438.012c-2.687,0-4.209-2.063-4.209-4.51c0-2.291,1.451-4.462,4.173-4.462    c0.504,0,1.032,0.072,1.547,0.252c2.59,0.899,2.758,3.718,2.758,4.294c0,1.463-0.671,2.782-1.607,3.538    C279.557,437.808,278.598,438.012,277.722,438.012z M279.186,431.427c-0.36-0.384-0.912-0.623-1.487-0.623    c-1.283,0-2.099,1.127-2.099,2.662c0,2.015,1.127,2.759,2.123,2.759c1.007,0,2.087-0.72,2.147-2.495    C279.905,432.842,279.665,431.942,279.186,431.427z"/>
		<path fill="#0094BB" d="M287.226,438.012c-2.687,0-4.209-2.063-4.209-4.51c0-2.291,1.451-4.462,4.173-4.462    c0.504,0,1.032,0.072,1.547,0.252c2.59,0.899,2.758,3.718,2.758,4.294c0,1.463-0.671,2.782-1.607,3.538    C289.061,437.808,288.102,438.012,287.226,438.012z M288.689,431.427c-0.36-0.384-0.912-0.623-1.487-0.623    c-1.283,0-2.099,1.127-2.099,2.662c0,2.015,1.127,2.759,2.123,2.759c1.007,0,2.087-0.72,2.147-2.495    C289.409,432.842,289.169,431.942,288.689,431.427z"/>
		<path fill="#0094BB" d="M292.82,429.304h3.406c1.392,0,2.627,0,3.371,1.067c0.324,0.48,0.479,1.164,0.479,1.739    c0,0.468-0.096,0.924-0.288,1.319c-0.731,1.512-2.291,1.547-3.442,1.571h-1.403v2.771h-2.123V429.304z M294.943,430.863v2.566    h1.271c0.792,0,1.751-0.023,1.751-1.331c0-1.235-1.067-1.235-1.679-1.235H294.943z"/>
		<path fill="#0094BB" d="M301.088,429.304h6.261v1.644h-4.15v1.535h3.874v1.607h-3.874v2.015h4.521v1.667h-6.632V429.304z"/>
		<path fill="#0094BB" d="M309.332,429.304h3.814c0.887,0.013,1.991,0.024,2.77,0.864c0.396,0.443,0.672,1.115,0.672,1.883    c0,1.703-1.164,2.123-1.739,2.339l1.955,3.382h-2.339l-1.679-3.022h-1.332v3.022h-2.123V429.304z M311.455,430.888v2.29h1.751    c0.3-0.012,1.271-0.036,1.271-1.163c0-1.079-0.78-1.115-1.223-1.127H311.455z"/>
		<path fill="#0094BB" d="M322.361,429.304l3.119,8.468h-2.255l-0.42-1.355h-3.118l-0.42,1.355h-2.255l3.143-8.468H322.361z     M321.222,431.319c-0.108,0.432-0.228,0.875-0.348,1.307c-0.18,0.636-0.504,1.632-0.696,2.267h2.147L321.222,431.319z"/>
		<path fill="#0094BB" d="M324.623,429.292h6.524v1.68h-2.195v6.8h-2.123v-6.8h-2.207V429.292z"/>
		<path fill="#0094BB" d="M332.098,429.304h6.261v1.644h-4.15v1.535h3.874v1.607h-3.874v2.015h4.521v1.667h-6.632V429.304z"/>
	</g>
</g>
<g>
	<g enable-background="new    ">
		<path fill="#339963" d="M272.92,65.86c-0.312,0.491-0.612,0.972-1.283,1.438c-0.36,0.252-1.188,0.744-2.363,0.744    c-2.243,0-4.054-1.631-4.054-4.498c0-2.506,1.703-4.485,4.102-4.485c0.972,0,1.835,0.336,2.471,0.84    c0.588,0.468,0.864,0.936,1.104,1.355l-1.679,0.839c-0.12-0.275-0.264-0.563-0.636-0.875c-0.408-0.324-0.815-0.42-1.163-0.42    c-1.367,0-2.087,1.271-2.087,2.687c0,1.859,0.947,2.782,2.087,2.782c1.104,0,1.547-0.768,1.835-1.259L272.92,65.86z"/>
		<path fill="#339963" d="M277.722,68.031c-2.687,0-4.209-2.063-4.209-4.51c0-2.291,1.451-4.462,4.173-4.462    c0.504,0,1.032,0.072,1.547,0.252c2.59,0.899,2.758,3.718,2.758,4.294c0,1.463-0.671,2.782-1.607,3.538    C279.557,67.827,278.598,68.031,277.722,68.031z M279.186,61.446c-0.36-0.384-0.912-0.623-1.487-0.623    c-1.283,0-2.099,1.127-2.099,2.662c0,2.015,1.127,2.759,2.123,2.759c1.007,0,2.087-0.72,2.147-2.495    C279.905,62.861,279.665,61.962,279.186,61.446z"/>
		<path fill="#339963" d="M287.226,68.031c-2.687,0-4.209-2.063-4.209-4.51c0-2.291,1.451-4.462,4.173-4.462    c0.504,0,1.032,0.072,1.547,0.252c2.59,0.899,2.758,3.718,2.758,4.294c0,1.463-0.671,2.782-1.607,3.538    C289.061,67.827,288.102,68.031,287.226,68.031z M288.689,61.446c-0.36-0.384-0.912-0.623-1.487-0.623    c-1.283,0-2.099,1.127-2.099,2.662c0,2.015,1.127,2.759,2.123,2.759c1.007,0,2.087-0.72,2.147-2.495    C289.409,62.861,289.169,61.962,288.689,61.446z"/>
		<path fill="#339963" d="M292.82,59.323h3.406c1.392,0,2.627,0,3.371,1.067c0.324,0.48,0.479,1.164,0.479,1.739    c0,0.468-0.096,0.924-0.288,1.319c-0.731,1.512-2.291,1.547-3.442,1.571h-1.403v2.771h-2.123V59.323z M294.943,60.883v2.566h1.271    c0.792,0,1.751-0.023,1.751-1.331c0-1.235-1.067-1.235-1.679-1.235H294.943z"/>
		<path fill="#339963" d="M301.088,59.323h6.261v1.644h-4.15v1.535h3.874v1.607h-3.874v2.015h4.521v1.667h-6.632V59.323z"/>
		<path fill="#339963" d="M309.332,59.323h3.814c0.887,0.013,1.991,0.024,2.77,0.864c0.396,0.443,0.672,1.115,0.672,1.883    c0,1.703-1.164,2.123-1.739,2.339l1.955,3.382h-2.339l-1.679-3.022h-1.332v3.022h-2.123V59.323z M311.455,60.907v2.29h1.751    c0.3-0.012,1.271-0.036,1.271-1.163c0-1.079-0.78-1.115-1.223-1.127H311.455z"/>
		<path fill="#339963" d="M322.361,59.323l3.119,8.468h-2.255l-0.42-1.355h-3.118l-0.42,1.355h-2.255l3.143-8.468H322.361z     M321.222,61.339c-0.108,0.432-0.228,0.875-0.348,1.307c-0.18,0.636-0.504,1.632-0.696,2.267h2.147L321.222,61.339z"/>
		<path fill="#339963" d="M324.623,59.312h6.524v1.68h-2.195v6.8h-2.123v-6.8h-2.207V59.312z"/>
		<path fill="#339963" d="M332.098,59.323h6.261v1.644h-4.15v1.535h3.874v1.607h-3.874v2.015h4.521v1.667h-6.632V59.323z"/>
	</g>
</g>
<g enable-background="new    ">
	<path fill="#339963" d="M265.557,465.796h2.698c1.032,0.013,2.591,0.036,3.67,0.996c0.875,0.791,1.211,1.979,1.211,3.166   c0,0.731-0.108,1.271-0.216,1.631c-0.78,2.615-3.142,2.663-4.03,2.675h-3.334V465.796z M267.692,467.583v4.978h0.647   c1.127-0.023,2.687-0.084,2.687-2.519c0-0.588-0.06-1.176-0.444-1.703c-0.576-0.768-1.391-0.756-2.039-0.756H267.692z"/>
	<path fill="#339963" d="M274.821,465.796h6.261v1.644h-4.15v1.535h3.874v1.607h-3.874v2.015h4.521v1.667h-6.632V465.796z"/>
	<path fill="#339963" d="M289.565,465.796v1.632h-4.39v1.774h4.042v1.644h-4.042v3.418h-2.111v-8.468H289.565z"/>
	<path fill="#339963" d="M290.577,465.796h6.261v1.644h-4.15v1.535h3.874v1.607h-3.874v2.015h4.521v1.667h-6.632V465.796z"/>
	<path fill="#339963" d="M305.933,472.333c-0.312,0.491-0.612,0.972-1.283,1.438c-0.36,0.252-1.188,0.744-2.363,0.744   c-2.243,0-4.054-1.631-4.054-4.498c0-2.506,1.703-4.485,4.102-4.485c0.972,0,1.835,0.336,2.471,0.84   c0.588,0.468,0.864,0.936,1.104,1.355l-1.679,0.839c-0.12-0.275-0.264-0.563-0.636-0.875c-0.408-0.324-0.815-0.42-1.163-0.42   c-1.367,0-2.087,1.271-2.087,2.687c0,1.859,0.947,2.782,2.087,2.782c1.104,0,1.547-0.768,1.835-1.259L305.933,472.333z"/>
	<path fill="#339963" d="M305.868,465.784h6.524v1.68h-2.195v6.8h-2.123v-6.8h-2.207V465.784z"/>
</g>
<circle fill="#007B78" cx="164.055" cy="560.376" r="8.885"/>
<rect x="260.348" y="549.73" fill="none" stroke="#007B78" stroke-width="5" stroke-linecap="round" stroke-linejoin="round" stroke-miterlimit="10" width="21.289" height="21.291"/>
<path fill="none" stroke="#0094BB" stroke-width="6" stroke-linecap="round" stroke-linejoin="round" stroke-miterlimit="10" d="  M159.194,214.112c0,0-2.002,16.917,16.543,16.917h37.778"/>
<path fill="none" stroke="#339963" stroke-width="7" stroke-miterlimit="10" stroke-dasharray="4,3" d="M220.116,268.638v144.159  c0,0,0,43.545,35,43.545c39,0,422.192,0,427.987,0c9.105,0,19.229-3.003,19.229-15.364v-23.097"/>
<path fill="none" stroke="#339963" stroke-width="7" stroke-linejoin="round" stroke-miterlimit="10" stroke-dasharray="4,3" d="  M240.619,268.638v13.634c0,0,0,43.545,35,43.545c39,0,166.965-0.25,172.76-0.25c9.105,0,19.229,3.002,19.229,15.362v18.096"/>
<path fill="none" stroke="#0094BB" stroke-width="7" stroke-miterlimit="10" stroke-dasharray="4,3" d="M251.63,268.638  c0,0,0,1.034,0,10.678c0,14.187,2.791,36.337,26.074,36.337c36.459,0,165.198,0.293,170.993,0.293  c9.104,0,19.228-3.003,19.228-15.364V285.17"/>
<path fill="none" stroke="#0094BB" stroke-width="7" stroke-miterlimit="10" d="M230.511,268.638c0,0,0,131.123,0,140.767  c0,14.187,2.791,36.337,26.074,36.337c36.459,0,101.674,0.293,107.469,0.293c9.105,0,19.228-3.003,19.228-15.364v-10.246"/>
<path fill="none" stroke="#0094BB" stroke-width="7" stroke-miterlimit="10" stroke-dasharray="4,3" d="M220.116,225.959V82.841  c0,0,0-43.545,35-43.545c39,0,422.192,0,427.987,0c9.105,0,19.229,3.003,19.229,15.364v24.019"/>
<path fill="none" stroke="#0094BB" stroke-width="7" stroke-miterlimit="10" d="M240.619,225.959v-12.593c0,0,0-43.545,35-43.545  c39,0,308.292,0.25,314.087,0.25c9.104,0,19.229-3.002,19.229-15.363v-12.47"/>
<path fill="none" stroke="#339963" stroke-width="7" stroke-linejoin="round" stroke-miterlimit="10" d="M251.63,225.959  c0,0,0,0.007,0-9.637c0-14.188,2.791-36.337,26.074-36.337c36.459,0,306.524-0.293,312.32-0.293c9.104,0,19.228,3.003,19.228,15.364  v17.38"/>
<path fill="none" stroke="#339963" stroke-width="7" stroke-linejoin="round" stroke-miterlimit="10" d="M230.511,225.16  c0,0,0-129.283,0-138.927c0-14.187,2.791-36.337,26.074-36.337c36.459,0,101.674-0.293,107.469-0.293  c9.105,0,19.228,3.003,19.228,15.364v13.711"/>
<rect x="213.516" y="225.959" fill="none" stroke="#007B78" stroke-width="6" stroke-linecap="round" stroke-linejoin="round" stroke-miterlimit="10" width="42.67" height="42.679"/>
<circle fill="#007B78" cx="159.194" cy="206.706" r="8.885"/>
<polygon fill="#007B78" points="372.501,87.14 382.644,70.216 392.786,87.142 "/>
<polygon fill="#007B78" points="372.501,420.506 382.644,403.582 392.786,420.508 "/>
<polygon fill="#007B78" points="372.501,517.472 382.644,500.548 392.786,517.474 "/>
<polygon fill="#007B78" points="456.646,517.472 466.79,500.548 476.933,517.474 "/>
<g enable-background="new    ">
	<path fill="#6DA69F" d="M604.118,521.312h4.862c1.131,0.015,2.537,0.03,3.531,1.101c0.505,0.565,0.856,1.422,0.856,2.4   c0,2.171-1.483,2.706-2.217,2.981l2.492,4.312h-2.981l-2.141-3.853h-1.697v3.853h-2.706V521.312z M606.824,523.329v2.921h2.232   c0.383-0.016,1.621-0.046,1.621-1.483c0-1.376-0.994-1.422-1.561-1.438H606.824z"/>
</g>
<polygon fill="#007B78" points="598.381,517.472 608.523,500.548 618.666,517.474 "/>
<g enable-background="new    ">
	<path fill="#6DA69F" d="M698.133,521.296h8.316v2.141h-2.797v8.669h-2.707v-8.669h-2.812V521.296z"/>
</g>
<polygon fill="#007B78" points="692.189,517.472 702.332,500.548 712.475,517.474 "/>
<polygon fill="#007B78" points="692.189,420.506 702.332,403.582 712.475,420.508 "/>
<polygon fill="#007B78" points="692.189,87.14 702.332,70.216 712.475,87.142 "/>
<polygon fill="#007B78" points="457.233,287.047 467.376,270.123 477.52,287.049 "/>
<polygon fill="#007B78" points="457.233,367.485 467.376,350.562 477.52,367.487 "/>
<polygon fill="#007B78" points="598.514,142.813 608.656,125.89 618.799,142.815 "/>
<polygon fill="#007B78" points="598.514,222.832 608.656,205.908 618.799,222.834 "/>
<polygon fill="#007B78" points="531.367,568.837 541.51,551.913 551.652,568.839 "/>
<g>
	<g>
		<g>
			<path fill="#6DA69F" d="M62.102,54.996h5.558v2.148c0.888-0.935,2.757-2.849,6.4-2.849c6.866,0,10.604,6.166,10.604,12.613     c0,6.961-4.343,12.146-10.604,12.146c-3.223,0-5.232-1.541-6.4-2.616v9.53h-5.558V54.996L62.102,54.996z M73.313,73.775     c2.708,0,5.652-1.868,5.652-7.148c0-5.838-4.064-6.958-5.746-6.958c-2.57,0-5.512,1.867-5.605,6.866     C67.52,71.346,70.183,73.775,73.313,73.775z"/>
		</g>
		<g>
			<path fill="#6DA69F" d="M96.451,71.953v32.981h-5.559v-2.243c-1.728,2.102-4.063,2.942-6.494,2.942     c-5.558,0-10.371-4.157-10.371-11.864c0-6.963,3.924-12.894,10.604-12.894c2.29,0,4.485,0.655,6.261,2.615V71.953H96.451z      M89.583,88.209c-0.841-1.261-2.242-2.148-4.111-2.148c-3.784,0-5.605,3.409-5.605,7.101c0,0.421,0.046,7.427,5.513,7.427     c2.896,0,5.512-2.147,5.464-7.192C90.798,91.898,90.612,89.752,89.583,88.209z"/>
		</g>
		<circle fill="#6DA69F" cx="64.851" cy="91.897" r="3.04"/>
		<circle fill="#6DA69F" cx="93.548" cy="65.936" r="2.931"/>
	</g>
</g>
<polygon fill="none" stroke="#6DA69F" stroke-width="6" stroke-miterlimit="10" points="31.384,449.641 31.384,378.675   125.907,378.675 125.922,449.641 "/>
<polygon fill="none" stroke="#6DA69F" stroke-width="6" stroke-miterlimit="10" points="31.384,126.383 31.384,31.809   125.898,31.809 125.912,126.383 "/>
<g enable-background="new    ">
	<path fill="#6DA69F" d="M57.571,402.462c-0.26,0.41-0.51,0.81-1.069,1.199c-0.3,0.21-0.989,0.62-1.969,0.62   c-1.869,0-3.378-1.359-3.378-3.748c0-2.089,1.419-3.738,3.418-3.738c0.81,0,1.529,0.28,2.059,0.7c0.49,0.39,0.72,0.779,0.919,1.129   l-1.399,0.7c-0.1-0.23-0.22-0.47-0.53-0.729c-0.34-0.271-0.68-0.351-0.97-0.351c-1.139,0-1.739,1.06-1.739,2.239   c0,1.549,0.79,2.318,1.739,2.318c0.919,0,1.29-0.64,1.529-1.049L57.571,402.462z"/>
	<path fill="#6DA69F" d="M61.572,404.271c-2.239,0-3.508-1.72-3.508-3.758c0-1.909,1.209-3.719,3.478-3.719   c0.419,0,0.859,0.061,1.289,0.21c2.159,0.75,2.299,3.099,2.299,3.578c0,1.22-0.56,2.319-1.339,2.948   C63.102,404.102,62.302,404.271,61.572,404.271z M62.792,398.784c-0.3-0.319-0.759-0.52-1.239-0.52   c-1.069,0-1.749,0.939-1.749,2.219c0,1.679,0.939,2.299,1.769,2.299c0.84,0,1.739-0.6,1.789-2.079   C63.392,399.964,63.191,399.214,62.792,398.784z"/>
	<path fill="#6DA69F" d="M69.492,404.271c-2.239,0-3.508-1.72-3.508-3.758c0-1.909,1.209-3.719,3.478-3.719   c0.419,0,0.859,0.061,1.289,0.21c2.159,0.75,2.299,3.099,2.299,3.578c0,1.22-0.56,2.319-1.339,2.948   C71.021,404.102,70.222,404.271,69.492,404.271z M70.711,398.784c-0.3-0.319-0.759-0.52-1.239-0.52   c-1.069,0-1.749,0.939-1.749,2.219c0,1.679,0.939,2.299,1.769,2.299c0.84,0,1.739-0.6,1.789-2.079   C71.312,399.964,71.111,399.214,70.711,398.784z"/>
	<path fill="#6DA69F" d="M74.154,397.016h2.839c1.159,0,2.188,0,2.808,0.889c0.27,0.4,0.4,0.97,0.4,1.449   c0,0.391-0.08,0.77-0.24,1.1c-0.61,1.26-1.909,1.289-2.869,1.31h-1.169v2.309h-1.769V397.016z M75.923,398.314v2.139h1.06   c0.66,0,1.459-0.02,1.459-1.109c0-1.029-0.889-1.029-1.399-1.029H75.923z"/>
	<path fill="#6DA69F" d="M81.044,397.016h5.217v1.369h-3.458v1.279h3.229v1.339h-3.229v1.679h3.768v1.39h-5.527V397.016z"/>
	<path fill="#6DA69F" d="M87.914,397.016h3.178c0.74,0.01,1.659,0.02,2.309,0.719c0.33,0.37,0.56,0.93,0.56,1.569   c0,1.419-0.969,1.77-1.449,1.949l1.629,2.818h-1.949l-1.399-2.519h-1.109v2.519h-1.769V397.016z M89.683,398.334v1.909h1.459   c0.25-0.01,1.059-0.029,1.059-0.969c0-0.9-0.649-0.93-1.019-0.94H89.683z"/>
	<path fill="#6DA69F" d="M98.772,397.016l2.598,7.056h-1.879l-0.35-1.129h-2.599l-0.35,1.129h-1.879l2.618-7.056H98.772z    M97.822,398.694c-0.09,0.359-0.19,0.729-0.29,1.089c-0.15,0.53-0.419,1.359-0.58,1.89h1.789L97.822,398.694z"/>
	<path fill="#6DA69F" d="M100.656,397.005h5.437v1.399h-1.829v5.667h-1.769v-5.667h-1.839V397.005z"/>
	<path fill="#6DA69F" d="M106.886,397.016h5.217v1.369h-3.458v1.279h3.229v1.339h-3.229v1.679h3.768v1.39h-5.527V397.016z"/>
</g>
<g>
	<g enable-background="new    ">
		<path fill="#6DA69F" d="M30.2,144.704h2.908c1.111,0.013,2.792,0.038,3.955,1.072c0.944,0.853,1.306,2.133,1.306,3.412    c0,0.788-0.117,1.37-0.233,1.758c-0.84,2.817-3.386,2.869-4.342,2.882H30.2V144.704z M32.5,146.629v5.364h0.698    c1.215-0.026,2.895-0.091,2.895-2.714c0-0.634-0.064-1.267-0.478-1.836c-0.621-0.827-1.5-0.814-2.197-0.814H32.5z"/>
		<path fill="#6DA69F" d="M47.433,144.704v9.124h-2.275v-9.124H47.433z"/>
		<path fill="#6DA69F" d="M54.751,144.69h2.274v7.212h3.567v1.926h-5.842V144.69z"/>
		<path fill="#6DA69F" d="M66.749,144.704h6.747v1.771h-4.472v1.654h4.175v1.731h-4.175v2.171h4.873v1.797h-7.147V144.704z"/>
		<path fill="#6DA69F" d="M90.715,144.704v9.124h-2.184l0.142-6.501l0.026-0.918l-0.077,0.323c-0.117,0.518-0.129,0.582-0.233,0.97    l-1.719,6.126h-1.964l-1.654-5.867l-0.401-1.629c0.039,0.724,0.039,0.879,0.078,1.745l0.116,5.751h-2.21v-9.124h3.334l1.396,5.117    l0.323,1.461c0.129-0.634,0.142-0.698,0.246-1.125l1.46-5.453H90.715z"/>
		<path fill="#6DA69F" d="M108.104,144.704v9.124h-2.185l0.142-6.501l0.026-0.918l-0.077,0.323c-0.117,0.518-0.129,0.582-0.233,0.97    l-1.719,6.126h-1.964l-1.654-5.867l-0.401-1.629c0.039,0.724,0.039,0.879,0.078,1.745l0.116,5.751h-2.21v-9.124h3.334l1.396,5.117    l0.323,1.461c0.129-0.634,0.142-0.698,0.246-1.125l1.46-5.453H108.104z"/>
		<path fill="#6DA69F" d="M119.742,144.704l3.36,9.124h-2.43l-0.452-1.46h-3.36l-0.452,1.46h-2.43l3.386-9.124H119.742z     M118.514,146.875c-0.116,0.465-0.246,0.943-0.375,1.408c-0.194,0.686-0.542,1.758-0.75,2.443h2.313L118.514,146.875z"/>
	</g>
</g>
<g enable-background="new    ">
	<path fill="#6DA69F" d="M43.084,353.199h3.224v7.749l3.607-3.821h3.949l-3.842,3.971l4.333,7.173h-3.8l-2.861-4.803l-1.409,1.323   v3.479h-3.202V353.199z"/>
	<path fill="#6DA69F" d="M67.535,365.432c-0.384,0.576-0.769,1.131-1.345,1.665c-0.96,0.896-2.412,1.579-4.205,1.579   c-3.309,0-5.636-2.113-5.636-5.764c0-2.689,1.324-6.147,5.721-6.147c0.662,0,2.583,0.063,4.013,1.601   c1.452,1.559,1.537,3.736,1.58,4.995H59.7c-0.021,1.388,0.769,2.775,2.54,2.775c1.793,0,2.413-1.174,2.818-1.964L67.535,365.432z    M64.269,361.312c-0.064-0.47-0.149-1.089-0.619-1.58c-0.406-0.405-1.025-0.619-1.601-0.619c-0.79,0-1.345,0.385-1.665,0.727   c-0.448,0.49-0.555,1.003-0.662,1.473H64.269z"/>
	<path fill="#6DA69F" d="M80.773,357.127l-3.928,12.04c-0.256,0.726-0.491,1.409-1.046,2.028c-0.769,0.832-1.516,0.875-2.37,0.896   h-2.37v-2.604h1.153c0.534-0.021,1.366-0.021,1.366-0.812c0-0.277-0.085-0.555-0.149-0.789l-3.33-10.76h3.501l1.836,7.984   l1.836-7.984H80.773z"/>
</g>
<g enable-background="new    ">
	<path fill="#6DA69F" d="M51.434,426.922h2.249c0.859,0.01,2.159,0.029,3.058,0.829c0.73,0.659,1.01,1.649,1.01,2.639   c0,0.609-0.09,1.06-0.18,1.359c-0.649,2.179-2.619,2.219-3.358,2.229h-2.779V426.922z M53.213,428.41v4.148h0.54   c0.939-0.021,2.239-0.07,2.239-2.099c0-0.49-0.05-0.979-0.37-1.42c-0.48-0.64-1.16-0.63-1.699-0.63H53.213z"/>
	<path fill="#6DA69F" d="M59.154,426.922h5.217v1.369h-3.458v1.279h3.229v1.339h-3.229v1.679h3.768v1.39h-5.527V426.922z"/>
	<path fill="#6DA69F" d="M71.441,426.922v1.358h-3.658v1.479h3.368v1.369h-3.368v2.849h-1.759v-7.056H71.441z"/>
	<path fill="#6DA69F" d="M72.284,426.922h5.217v1.369h-3.458v1.279h3.229v1.339h-3.229v1.679h3.768v1.39h-5.527V426.922z"/>
	<path fill="#6DA69F" d="M85.081,432.368c-0.26,0.41-0.51,0.81-1.069,1.199c-0.3,0.21-0.989,0.62-1.969,0.62   c-1.869,0-3.378-1.359-3.378-3.748c0-2.089,1.419-3.738,3.418-3.738c0.81,0,1.529,0.28,2.059,0.7c0.49,0.39,0.72,0.779,0.919,1.129   l-1.399,0.7c-0.1-0.23-0.22-0.47-0.53-0.729c-0.34-0.271-0.68-0.351-0.97-0.351c-1.139,0-1.739,1.06-1.739,2.239   c0,1.549,0.79,2.318,1.739,2.318c0.919,0,1.29-0.64,1.529-1.049L85.081,432.368z"/>
	<path fill="#6DA69F" d="M85.026,426.911h5.437v1.399h-1.829v5.667h-1.769v-5.667h-1.839V426.911z"/>
</g>
<line fill="none" stroke="#6DA69F" stroke-width="6" stroke-miterlimit="10" stroke-dasharray="4,3" x1="43.68" y1="440.301" x2="43.767" y2="416.386"/>
<line fill="none" stroke="#6DA69F" stroke-width="6" stroke-miterlimit="10" x1="43.68" y1="410.574" x2="43.767" y2="388.179"/>
<rect x="31.384" y="342.744" fill="none" stroke="#6DA69F" stroke-width="6" stroke-miterlimit="10" width="94.538" height="35.931"/>
<line fill="none" stroke="#6DA69F" stroke-width="5" stroke-linecap="round" stroke-linejoin="round" stroke-miterlimit="10" x1="127.956" y1="508.204" x2="372.511" y2="508.204"/>
<line fill="none" stroke="#6DA69F" stroke-width="5" stroke-linecap="round" stroke-linejoin="round" stroke-miterlimit="10" x1="392.248" y1="508.204" x2="456.746" y2="508.204"/>
<line fill="none" stroke="#6DA69F" stroke-width="5" stroke-linecap="round" stroke-linejoin="round" stroke-miterlimit="10" x1="477.183" y1="508.204" x2="598.046" y2="508.204"/>
<line fill="none" stroke="#6DA69F" stroke-width="5" stroke-linecap="round" stroke-linejoin="round" stroke-miterlimit="10" x1="619.32" y1="508.204" x2="691.516" y2="508.204"/>
<line fill="none" stroke="#6DA69F" stroke-width="5" stroke-linecap="round" stroke-linejoin="round" stroke-miterlimit="10" x1="126.982" y1="502.782" x2="126.982" y2="513.625"/>
<g enable-background="new    ">
	<path fill="#6DA69F" d="M35.696,562.714c0.275,0.306,0.504,0.55,1.04,0.841c0.719,0.382,1.453,0.52,2.079,0.52   c1.07,0,1.988-0.504,1.988-1.254c0-0.855-1.085-0.993-1.88-1.101c-0.597-0.076-1.193-0.152-1.774-0.275   c-0.657-0.138-2.905-0.611-2.905-2.936c0-2.782,2.477-3.607,4.342-3.607c2.492,0,3.837,1.207,4.77,2.048l-1.987,1.422   c-0.336-0.336-0.642-0.626-1.07-0.871c-0.382-0.214-1.07-0.474-1.758-0.474c-1.07,0-1.605,0.611-1.605,1.131   c0,0.826,0.917,0.948,1.376,1.01c1.147,0.138,2.691,0.428,3.303,0.642c1.238,0.459,1.865,1.422,1.865,2.646   c0,0.779-0.291,1.636-0.856,2.293c-0.979,1.132-2.538,1.452-4.052,1.452c-3.042,0-4.25-1.406-4.923-2.186L35.696,562.714z"/>
	<path fill="#6DA69F" d="M45.711,555.161h7.981v2.095h-5.29v1.957h4.938v2.049h-4.938v2.568h5.764v2.125h-8.455V555.161z"/>
	<path fill="#6DA69F" d="M66.582,566.934c-1.162-0.214-1.544-0.352-2.966-1.422c-0.872,0.413-1.575,0.749-2.722,0.749   c-1.453,0-2.844-0.55-3.776-1.452c-1.208-1.178-1.605-2.905-1.605-4.297c0-3.149,2.049-5.672,5.367-5.672   c3.44,0,5.458,2.614,5.458,5.626c0,1.851-0.657,2.905-1.07,3.594c0.627,0.565,1.009,0.779,2.095,0.963L66.582,566.934z    M58.204,560.497c0,2.171,1.116,3.485,2.752,3.485c1.82,0,2.707-1.605,2.707-3.471c0-1.009-0.352-1.88-0.612-2.277   c-0.642-1.01-1.728-1.147-2.309-1.116C58.815,557.225,58.204,559.029,58.204,560.497z"/>
	<path fill="#6DA69F" d="M77.148,555.161v6.023c-0.015,1.04-0.031,2.079-0.627,3.058c-1.162,1.866-3.562,1.957-4.021,1.957   c-0.811,0-1.773-0.198-2.507-0.58c-2.08-1.07-2.08-2.967-2.064-4.435v-6.023h2.722v6.727c0,0.551,0.015,1.01,0.199,1.346   c0.336,0.565,1.07,0.734,1.743,0.734c1.834,0,1.834-1.254,1.85-2.095v-6.712H77.148z"/>
	<path fill="#6DA69F" d="M79.81,555.161h7.981v2.095h-5.29v1.957h4.938v2.049h-4.938v2.568h5.764v2.125H79.81V555.161z"/>
	<path fill="#6DA69F" d="M90.315,555.161h2.645l2.339,3.975c0.856,1.514,1.116,2.003,1.621,2.951l-0.123-6.926h2.584v10.794h-2.645   l-2.018-3.409c-0.979-1.605-1.162-1.942-1.896-3.379l0.077,6.788h-2.584V555.161z"/>
	<path fill="#6DA69F" d="M111.171,563.493c-0.397,0.627-0.78,1.239-1.636,1.835c-0.458,0.321-1.514,0.948-3.012,0.948   c-2.859,0-5.168-2.079-5.168-5.733c0-3.195,2.171-5.719,5.229-5.719c1.238,0,2.339,0.429,3.149,1.07   c0.75,0.597,1.101,1.192,1.407,1.728l-2.141,1.07c-0.153-0.352-0.336-0.719-0.81-1.116c-0.52-0.412-1.04-0.535-1.483-0.535   c-1.743,0-2.661,1.621-2.661,3.425c0,2.37,1.208,3.548,2.661,3.548c1.406,0,1.972-0.979,2.339-1.605L111.171,563.493z"/>
	<path fill="#6DA69F" d="M112.318,555.161h7.981v2.095h-5.29v1.957h4.938v2.049h-4.938v2.568h5.764v2.125h-8.455V555.161z"/>
</g>
<line fill="none" stroke="#6DA69F" stroke-width="5" stroke-linecap="round" stroke-linejoin="round" stroke-miterlimit="10" x1="127.956" y1="560.218" x2="150" y2="560.218"/>
<line fill="none" stroke="#6DA69F" stroke-width="5" stroke-linecap="round" stroke-linejoin="round" stroke-miterlimit="10" x1="178.159" y1="560.218" x2="253.602" y2="560.218"/>
<line fill="none" stroke="#6DA69F" stroke-width="5" stroke-linecap="round" stroke-linejoin="round" stroke-miterlimit="10" x1="289.667" y1="560.218" x2="530.366" y2="560.218"/>
<line fill="none" stroke="#6DA69F" stroke-width="5" stroke-linecap="round" stroke-linejoin="round" stroke-miterlimit="10" x1="126.982" y1="554.796" x2="126.982" y2="565.639"/>
<g>
	<g enable-background="new    ">
		<path fill="#339963" d="M272.92,197.893c-0.312,0.491-0.612,0.972-1.283,1.438c-0.36,0.252-1.188,0.744-2.363,0.744    c-2.243,0-4.054-1.631-4.054-4.498c0-2.506,1.703-4.485,4.102-4.485c0.972,0,1.835,0.336,2.471,0.84    c0.588,0.468,0.864,0.936,1.104,1.355l-1.679,0.839c-0.12-0.275-0.264-0.563-0.636-0.875c-0.408-0.324-0.815-0.42-1.163-0.42    c-1.367,0-2.087,1.271-2.087,2.687c0,1.859,0.947,2.782,2.087,2.782c1.104,0,1.547-0.768,1.835-1.259L272.92,197.893z"/>
		<path fill="#339963" d="M277.722,200.063c-2.687,0-4.209-2.063-4.209-4.51c0-2.291,1.451-4.462,4.173-4.462    c0.504,0,1.032,0.072,1.547,0.252c2.59,0.899,2.758,3.718,2.758,4.294c0,1.463-0.671,2.782-1.607,3.538    C279.557,199.859,278.598,200.063,277.722,200.063z M279.186,193.479c-0.36-0.384-0.912-0.623-1.487-0.623    c-1.283,0-2.099,1.127-2.099,2.662c0,2.015,1.127,2.759,2.123,2.759c1.007,0,2.087-0.72,2.147-2.495    C279.905,194.894,279.665,193.994,279.186,193.479z"/>
		<path fill="#339963" d="M287.226,200.063c-2.687,0-4.209-2.063-4.209-4.51c0-2.291,1.451-4.462,4.173-4.462    c0.504,0,1.032,0.072,1.547,0.252c2.59,0.899,2.758,3.718,2.758,4.294c0,1.463-0.671,2.782-1.607,3.538    C289.061,199.859,288.102,200.063,287.226,200.063z M288.689,193.479c-0.36-0.384-0.912-0.623-1.487-0.623    c-1.283,0-2.099,1.127-2.099,2.662c0,2.015,1.127,2.759,2.123,2.759c1.007,0,2.087-0.72,2.147-2.495    C289.409,194.894,289.169,193.994,288.689,193.479z"/>
		<path fill="#339963" d="M292.82,191.355h3.406c1.392,0,2.627,0,3.371,1.067c0.324,0.48,0.479,1.164,0.479,1.739    c0,0.468-0.096,0.924-0.288,1.319c-0.731,1.512-2.291,1.547-3.442,1.571h-1.403v2.771h-2.123V191.355z M294.943,192.915v2.566    h1.271c0.792,0,1.751-0.023,1.751-1.331c0-1.235-1.067-1.235-1.679-1.235H294.943z"/>
		<path fill="#339963" d="M301.088,191.355h6.261v1.644h-4.15v1.535h3.874v1.607h-3.874v2.015h4.521v1.667h-6.632V191.355z"/>
		<path fill="#339963" d="M309.332,191.355h3.814c0.887,0.013,1.991,0.024,2.77,0.864c0.396,0.443,0.672,1.115,0.672,1.883    c0,1.703-1.164,2.123-1.739,2.339l1.955,3.382h-2.339l-1.679-3.022h-1.332v3.022h-2.123V191.355z M311.455,192.939v2.29h1.751    c0.3-0.012,1.271-0.036,1.271-1.163c0-1.079-0.78-1.115-1.223-1.127H311.455z"/>
		<path fill="#339963" d="M322.361,191.355l3.119,8.468h-2.255l-0.42-1.355h-3.118l-0.42,1.355h-2.255l3.143-8.468H322.361z     M321.222,193.371c-0.108,0.432-0.228,0.875-0.348,1.307c-0.18,0.636-0.504,1.632-0.696,2.267h2.147L321.222,193.371z"/>
		<path fill="#339963" d="M324.623,191.344h6.524v1.68h-2.195v6.8h-2.123v-6.8h-2.207V191.344z"/>
		<path fill="#339963" d="M332.098,191.355h6.261v1.644h-4.15v1.535h3.874v1.607h-3.874v2.015h4.521v1.667h-6.632V191.355z"/>
	</g>
</g>
<g>
	<g enable-background="new    ">
		<path fill="#0094BB" d="M272.92,159.479c-0.312,0.491-0.612,0.972-1.283,1.438c-0.36,0.252-1.188,0.744-2.363,0.744    c-2.243,0-4.054-1.631-4.054-4.498c0-2.506,1.703-4.485,4.102-4.485c0.972,0,1.835,0.336,2.471,0.84    c0.588,0.468,0.864,0.936,1.104,1.355l-1.679,0.839c-0.12-0.275-0.264-0.563-0.636-0.875c-0.408-0.324-0.815-0.42-1.163-0.42    c-1.367,0-2.087,1.271-2.087,2.687c0,1.859,0.947,2.782,2.087,2.782c1.104,0,1.547-0.768,1.835-1.259L272.92,159.479z"/>
		<path fill="#0094BB" d="M277.722,161.65c-2.687,0-4.209-2.063-4.209-4.51c0-2.291,1.451-4.462,4.173-4.462    c0.504,0,1.032,0.072,1.547,0.252c2.59,0.899,2.758,3.718,2.758,4.294c0,1.463-0.671,2.782-1.607,3.538    C279.557,161.446,278.598,161.65,277.722,161.65z M279.186,155.065c-0.36-0.384-0.912-0.623-1.487-0.623    c-1.283,0-2.099,1.127-2.099,2.662c0,2.015,1.127,2.759,2.123,2.759c1.007,0,2.087-0.72,2.147-2.495    C279.905,156.48,279.665,155.581,279.186,155.065z"/>
		<path fill="#0094BB" d="M287.226,161.65c-2.687,0-4.209-2.063-4.209-4.51c0-2.291,1.451-4.462,4.173-4.462    c0.504,0,1.032,0.072,1.547,0.252c2.59,0.899,2.758,3.718,2.758,4.294c0,1.463-0.671,2.782-1.607,3.538    C289.061,161.446,288.102,161.65,287.226,161.65z M288.689,155.065c-0.36-0.384-0.912-0.623-1.487-0.623    c-1.283,0-2.099,1.127-2.099,2.662c0,2.015,1.127,2.759,2.123,2.759c1.007,0,2.087-0.72,2.147-2.495    C289.409,156.48,289.169,155.581,288.689,155.065z"/>
		<path fill="#0094BB" d="M292.82,152.942h3.406c1.392,0,2.627,0,3.371,1.067c0.324,0.48,0.479,1.164,0.479,1.739    c0,0.468-0.096,0.924-0.288,1.319c-0.731,1.512-2.291,1.547-3.442,1.571h-1.403v2.771h-2.123V152.942z M294.943,154.502v2.566    h1.271c0.792,0,1.751-0.023,1.751-1.331c0-1.235-1.067-1.235-1.679-1.235H294.943z"/>
		<path fill="#0094BB" d="M301.088,152.942h6.261v1.644h-4.15v1.535h3.874v1.607h-3.874v2.015h4.521v1.667h-6.632V152.942z"/>
		<path fill="#0094BB" d="M309.332,152.942h3.814c0.887,0.013,1.991,0.024,2.77,0.864c0.396,0.443,0.672,1.115,0.672,1.883    c0,1.703-1.164,2.123-1.739,2.339l1.955,3.382h-2.339l-1.679-3.022h-1.332v3.022h-2.123V152.942z M311.455,154.526v2.29h1.751    c0.3-0.012,1.271-0.036,1.271-1.163c0-1.079-0.78-1.115-1.223-1.127H311.455z"/>
		<path fill="#0094BB" d="M322.361,152.942l3.119,8.468h-2.255l-0.42-1.355h-3.118l-0.42,1.355h-2.255l3.143-8.468H322.361z     M321.222,154.958c-0.108,0.432-0.228,0.875-0.348,1.307c-0.18,0.636-0.504,1.632-0.696,2.267h2.147L321.222,154.958z"/>
		<path fill="#0094BB" d="M324.623,152.931h6.524v1.68h-2.195v6.8h-2.123v-6.8h-2.207V152.931z"/>
		<path fill="#0094BB" d="M332.098,152.942h6.261v1.644h-4.15v1.535h3.874v1.607h-3.874v2.015h4.521v1.667h-6.632V152.942z"/>
	</g>
</g>
<path fill="none" stroke="#6DA69F" stroke-width="5" stroke-linecap="round" stroke-linejoin="round" stroke-miterlimit="10" d="  M716.207,527.157c0,6.8-4.961,11.712-12.727,11.712c-4.275,0-139.207,0-149.613,0c-10.404,0-12.306,6.856-12.306,6.856  s-1.898-6.856-12.305-6.856s-145.338,0-149.613,0c-7.766,0-12.727-4.912-12.727-11.712"/>
<g enable-background="new    ">
	<path fill="#6DA69F" d="M30.128,132.429h3.367c1.375,0,2.596,0,3.332,1.055c0.32,0.475,0.474,1.15,0.474,1.72   c0,0.462-0.095,0.912-0.285,1.304c-0.723,1.494-2.264,1.529-3.402,1.554h-1.387v2.738h-2.099V132.429z M32.227,133.97v2.537h1.256   c0.783,0,1.731-0.023,1.731-1.316c0-1.221-1.056-1.221-1.66-1.221H32.227z"/>
	<path fill="#6DA69F" d="M40.272,132.429h3.77c0.877,0.012,1.968,0.023,2.739,0.854c0.392,0.438,0.664,1.103,0.664,1.861   c0,1.684-1.15,2.099-1.719,2.312l1.933,3.344h-2.312l-1.66-2.987h-1.316v2.987h-2.099V132.429z M42.371,133.993v2.265h1.731   c0.296-0.012,1.257-0.035,1.257-1.15c0-1.066-0.771-1.103-1.209-1.114H42.371z"/>
	<path fill="#6DA69F" d="M53.238,132.429v8.37h-2.086v-8.37H53.238z"/>
	<path fill="#6DA69F" d="M58.251,138.285c0.213,0.237,0.391,0.427,0.806,0.652c0.558,0.296,1.126,0.403,1.613,0.403   c0.83,0,1.541-0.392,1.541-0.973c0-0.664-0.842-0.771-1.458-0.854c-0.462-0.06-0.925-0.118-1.375-0.213   c-0.51-0.107-2.253-0.475-2.253-2.276c0-2.158,1.921-2.799,3.367-2.799c1.933,0,2.976,0.937,3.699,1.589l-1.541,1.103   c-0.261-0.261-0.498-0.486-0.83-0.676c-0.296-0.166-0.83-0.367-1.363-0.367c-0.83,0-1.245,0.475-1.245,0.877   c0,0.641,0.711,0.735,1.067,0.783c0.889,0.106,2.087,0.332,2.561,0.497c0.96,0.356,1.446,1.104,1.446,2.052   c0,0.604-0.225,1.269-0.664,1.778c-0.759,0.877-1.968,1.126-3.142,1.126c-2.359,0-3.296-1.091-3.817-1.695L58.251,138.285z"/>
	<path fill="#6DA69F" d="M71.609,141.036c-2.656,0-4.162-2.039-4.162-4.458c0-2.265,1.435-4.41,4.126-4.41   c0.498,0,1.02,0.07,1.529,0.249c2.561,0.889,2.727,3.675,2.727,4.244c0,1.446-0.664,2.751-1.589,3.497   C73.423,140.834,72.474,141.036,71.609,141.036z M73.055,134.527c-0.356-0.38-0.901-0.617-1.47-0.617   c-1.269,0-2.075,1.115-2.075,2.633c0,1.991,1.114,2.727,2.099,2.727c0.996,0,2.062-0.712,2.122-2.466   C73.767,135.926,73.529,135.037,73.055,134.527z"/>
	<path fill="#6DA69F" d="M79.121,132.429h2.051l1.814,3.082c0.664,1.174,0.865,1.554,1.256,2.288l-0.095-5.37h2.004v8.37H84.1   l-1.565-2.644c-0.759-1.245-0.901-1.506-1.47-2.62l0.059,5.264h-2.003V132.429z"/>
	<path fill="#6DA69F" d="M90.261,132.429h6.189v1.624h-4.102v1.518h3.829v1.589h-3.829v1.991h4.47v1.648h-6.557V132.429z"/>
	<path fill="#6DA69F" d="M100.394,132.429h3.77c0.877,0.012,1.968,0.023,2.739,0.854c0.392,0.438,0.664,1.103,0.664,1.861   c0,1.684-1.15,2.099-1.719,2.312l1.933,3.344h-2.312l-1.66-2.987h-1.316v2.987h-2.099V132.429z M102.492,133.993v2.265h1.731   c0.296-0.012,1.257-0.035,1.257-1.15c0-1.066-0.771-1.103-1.209-1.114H102.492z"/>
</g>
<g enable-background="new    ">
	<path fill="#6DA69F" d="M112.257,132.429h1.885v1.707c-0.023,0.593-0.13,1.126-0.498,1.589c-0.154,0.178-0.593,0.616-1.387,0.711   v-0.842c0.545-0.166,0.735-0.45,0.759-1.221h-0.759V132.429z"/>
</g>
<g enable-background="new    ">
	<path fill="#6DA69F" d="M118.574,138.285c0.213,0.237,0.392,0.427,0.806,0.652c0.558,0.296,1.126,0.403,1.613,0.403   c0.83,0,1.541-0.392,1.541-0.973c0-0.664-0.842-0.771-1.458-0.854c-0.462-0.06-0.925-0.118-1.375-0.213   c-0.51-0.107-2.252-0.475-2.252-2.276c0-2.158,1.92-2.799,3.367-2.799c1.933,0,2.976,0.937,3.699,1.589l-1.541,1.103   c-0.261-0.261-0.498-0.486-0.83-0.676c-0.296-0.166-0.83-0.367-1.363-0.367c-0.83,0-1.245,0.475-1.245,0.877   c0,0.641,0.711,0.735,1.067,0.783c0.889,0.106,2.087,0.332,2.561,0.497c0.96,0.356,1.446,1.104,1.446,2.052   c0,0.604-0.225,1.269-0.664,1.778c-0.759,0.877-1.968,1.126-3.142,1.126c-2.359,0-3.296-1.091-3.817-1.695L118.574,138.285z"/>
</g>
</svg>